<svg xmlns="http://www.w3.org/2000/svg" fill="none" stroke-linecap="square" stroke-miterlimit="10" viewBox="0 0 644 496.4"><clipPath id="a"><path d="M0 0h644v496.4H0V0z"/></clipPath><g clip-path="url(#a)"><path fill="none" d="M0 0h644v496.4H0z"/><path fill="#cfe2f3" fill-rule="evenodd" d="M70.33 54.73h195.9V193.1H70.34z"/><path stroke="#000" stroke-linecap="butt" stroke-linejoin="round" d="M70.33 54.73h195.9V193.1H70.34z"/><path fill="#000" d="M82.1 109.71h10.05v2.69h-6.43v8.58h5.22v2.56h-5.22v9.5h6.5v2.6H82.1V109.7zm12.75 7.42h3.16v1.77q.93-1.03 2.03-1.55 1.1-.53 2.33-.53 2.35 0 3 2.33 1.92-2.33 4.6-2.33 1.44 0 2.35 1.06.92 1.05.92 3.22v14.53h-3.14v-14.3q0-1.27-.42-1.77-.4-.5-1.17-.5-.7 0-1.47.4t-1.4 1.1v15.07h-3.15v-14.3q0-1.27-.42-1.77-.4-.5-1.17-.5-.68 0-1.46.4-.76.4-1.43 1.1v15.07h-3.16v-18.5zm26.84 18.75q-2.94 0-4.17-1.73-1.24-1.75-1.24-5.08v-5.37q0-3.33 1.24-5.07 1.23-1.75 4.17-1.75 2.92 0 4.14 1.75 1.23 1.74 1.23 5.07v5.37q0 3.33-1.23 5.08-1.22 1.73-4.14 1.73zm0-2.51q.94 0 1.34-.55.42-.54.52-1.34.1-.8.1-2.19v-5.78q0-1.38-.1-2.19-.1-.83-.52-1.36-.4-.54-1.34-.54-.92 0-1.36.54-.42.53-.53 1.36-.1.81-.1 2.19v5.78q0 1.4.1 2.19.1.8.53 1.34.44.55 1.36.55zm13.44 2.51q-4 0-4-4.4v-12.06h-1.95v-2.29h1.95v-5.4h3.42v5.4h2.99v2.29h-2.99v11.82q0 1.13.35 1.58.36.44 1.36.44.64 0 1.25-.1v2.54q-1.28.18-2.38.18zm5.15-25.07h3.43v3.57h-3.43v-3.57zm0 6.32h3.43v18.5h-3.43v-18.5zm12.2 18.75q-2.95 0-4.18-1.73-1.23-1.75-1.23-5.08v-5.37q0-3.33 1.23-5.07 1.23-1.75 4.17-1.75 2.92 0 4.14 1.75 1.24 1.74 1.24 5.07v5.37q0 3.33-1.24 5.08-1.22 1.73-4.14 1.73zm0-2.51q.93 0 1.34-.55.42-.54.51-1.34.1-.8.1-2.19v-5.78q0-1.38-.1-2.19-.1-.83-.51-1.36-.41-.54-1.35-.54-.92 0-1.36.54-.42.53-.53 1.36-.1.81-.1 2.19v5.78q0 1.4.1 2.19.11.8.53 1.34.44.55 1.36.55zm8.51-16.24h3.43v1.83q2.2-2.08 4.5-2.08 1.51 0 2.15 1.1.64 1.08.64 2.69v14.96h-3.42v-13.98q0-1.06-.33-1.56-.31-.52-1.15-.52-1.02 0-2.4 1.16v14.9H161v-18.5zm21.66-7.42h10.05v2.69h-6.44v8.58h5.22v2.56h-5.22v9.5h6.5v2.6h-10.1V109.7zm12.74 7.42h3.43v1.83q2.2-2.08 4.5-2.08 1.51 0 2.15 1.1.64 1.08.64 2.69v14.96h-3.42v-13.98q0-1.06-.33-1.56-.31-.52-1.15-.52-1.02 0-2.4 1.16v14.9h-3.42v-18.5zm18.85 24.24q-2.69 0-4.3-.86-1.6-.84-1.6-2.64 0-1.2.76-2.11.75-.9 1.9-1.44-.85-.25-1.32-.8-.47-.54-.47-1.18 0-.96.48-1.66.49-.7 1.56-1.7-1.07-.83-1.6-2.1-.54-1.26-.54-3.4 0-3.24 1.33-4.9 1.33-1.7 3.9-1.7 1.46 0 2.38.52.94.5 1.43 1.53.21-.36.93-.94.72-.59 1.55-.98l.52-.22.85 2.2q-.64.13-1.78.55-1.12.4-1.34.64.22.58.39 1.61.19 1.02.19 1.78 0 3.03-1.19 4.72t-3.94 1.69q-.86 0-1.76-.24-.61.91-.61 1.41 0 .36.36.56.37.2 1.18.28l2.88.25q2.17.2 3.22 1.32 1.06 1.12 1.06 3.2 0 4.6-6.42 4.6zm.1-13.8q1.37 0 1.77-.95.43-.97.43-3.14 0-2.22-.43-3.22-.4-1.02-1.75-1.02-1.34 0-1.8 1.02-.46 1-.46 3.22 0 1.98.45 3.05.47 1.04 1.78 1.04zm.15 11.11q1.83 0 2.69-.44.87-.43.87-1.39 0-.9-.55-1.32-.54-.44-1.98-.57l-2.92-.25q-.67.67-1.03 1.17-.35.52-.35 1.13 0 .86.72 1.27.72.4 2.55.4zm9.1-27.87H227v3.57h-3.42v-3.57zm0 6.32H227v18.5h-3.42v-18.5zm7.1 0h3.42v1.83q2.2-2.08 4.5-2.08 1.52 0 2.16 1.1.64 1.08.64 2.69v14.96h-3.42v-13.98q0-1.06-.33-1.56-.31-.52-1.16-.52-1.01 0-2.39 1.16v14.9h-3.42v-18.5zm19.16 18.75q-2.14 0-3.33-.8-1.17-.82-1.66-2.41-.48-1.61-.48-4.18v-4.21q0-3.85 1.2-5.61 1.2-1.79 4.27-1.79 2.25 0 3.37.94 1.14.92 1.5 2.61.38 1.67.38 4.52v1.5h-7.3v3.72q0 1.68.5 2.45.5.75 1.58.75 1.1 0 1.47-.75.39-.77.39-2.3v-1.12h3.33v.7q0 2.92-1.25 4.45-1.25 1.53-3.97 1.53zm1.89-11.3v-1.65q0-1.89-.38-2.7-.36-.81-1.54-.81-.83 0-1.27.39-.42.37-.6 1.25-.15.87-.15 2.54v.99h3.94z"/><path fill="#f4cccc" fill-rule="evenodd" d="M70.33 303.3h195.9v138.37H70.34z"/><path stroke="#000" stroke-linecap="butt" stroke-linejoin="round" d="M70.33 303.3h195.9v138.37H70.34z"/><path fill="#000" d="M94.79 339.28h3.56v25.92H94.8v-25.92zm7.47 7.42h3.42v1.83q2.2-2.08 4.5-2.08 1.52 0 2.16 1.1.64 1.08.64 2.69v14.96h-3.43v-13.98q0-1.06-.32-1.56-.32-.52-1.16-.52-1.02 0-2.39 1.16v14.9h-3.42v-18.5zm14.05 0h3.42v1.47q1.5-1.72 3.51-1.72 2.53 0 3.38 2.16.84 2.16.84 4.78v4.49q0 3.39-1.04 5.48-1.04 2.1-3.57 2.1-1.62 0-3.12-1.63v7.45h-3.42V346.7zm5.87 16.07q1.19 0 1.52-1.2.34-1.2.34-3.7v-4.48q0-2.05-.4-3.14-.37-1.1-1.58-1.1-1.2 0-2.33.94v11.85q1.1.83 2.45.83zm11.05 2.68q-1.51 0-2.15-1.07-.64-1.1-.64-2.7V346.7h3.43v13.96q0 1.06.32 1.6.31.5 1.15.5 1.02 0 2.4-1.13V346.7h3.42v18.5h-3.43v-1.82q-2.2 2.07-4.5 2.07zm16.35 0q-4 0-4-4.4v-12.06h-1.95v-2.29h1.95v-5.4H149v5.4H152V349H149v11.82q0 1.13.35 1.58.35.44 1.35.44.65 0 1.25-.1v2.54q-1.28.18-2.37.18zm11.1-26.17h2.97l-7 25.92h-2.95l6.99-25.92zm12.55 26.2q-3.81 0-5.47-2.15-1.64-2.16-1.64-6.25v-9.83q0-4.03 1.65-6.1 1.68-2.09 5.46-2.09 3.78 0 5.42 2.1 1.66 2.1 1.66 6.1v9.85q0 4.03-1.68 6.2-1.65 2.18-5.4 2.18zm0-2.84q2.01 0 2.72-1.17.7-1.19.7-3.6v-11.35q0-2.38-.7-3.5-.7-1.14-2.72-1.14-2.05 0-2.75 1.14-.7 1.12-.7 3.5v11.36q0 2.4.7 3.59.7 1.17 2.75 1.17zm13 2.81q-1.52 0-2.16-1.07-.64-1.1-.64-2.7V346.7h3.44v13.96q0 1.06.3 1.6.32.5 1.17.5 1.01 0 2.39-1.13V346.7h3.42v18.5h-3.42v-1.82q-2.2 2.07-4.5 2.07zm16.34 0q-4 0-4-4.4v-12.06h-1.95v-2.29h1.95v-5.4H202v5.4h2.99V349h-2.99v11.82q0 1.13.35 1.58.36.44 1.36.44.64 0 1.25-.1v2.54q-1.28.18-2.38.18zm4.94-18.75h3.42v1.47q1.5-1.72 3.51-1.72 2.53 0 3.38 2.16.84 2.16.84 4.78v4.49q0 3.39-1.04 5.48-1.04 2.1-3.57 2.1-1.62 0-3.12-1.63v7.45h-3.42V346.7zm5.87 16.07q1.19 0 1.52-1.2.34-1.2.34-3.7v-4.48q0-2.05-.39-3.14-.38-1.1-1.6-1.1-1.18 0-2.32.94v11.85q1.1.83 2.45.83zm11.05 2.68q-1.51 0-2.15-1.07-.64-1.1-.64-2.7V346.7h3.43v13.96q0 1.06.32 1.6.31.5 1.15.5 1.02 0 2.4-1.13V346.7h3.42v18.5h-3.43v-1.82q-2.2 2.07-4.5 2.07zm16.35 0q-4 0-4-4.4v-12.06h-1.95v-2.29h1.95v-5.4h3.42v5.4h2.99V349h-2.99v11.82q0 1.13.35 1.58.35.44 1.35.44.65 0 1.25-.1v2.54q-1.28.18-2.37.18zM113.47 377.28h6.43q3.36 0 4.88 1.83t1.52 5.34q0 3.18-1.65 4.94-1.62 1.75-4.71 1.75h-2.86v12.06h-3.61v-25.92zm5.28 11.27q1.6 0 2.47-.35.89-.36 1.26-1.21.4-.88.4-2.5 0-1.99-.3-2.91-.28-.94-1.13-1.31-.84-.4-2.67-.4h-1.7v8.68h1.67zm9.89-3.85h3.42v2.63q.95-1.56 1.95-2.2 1.02-.64 2.15-.64.28 0 .54.03v3.78q-1.03-.4-1.89-.4-.83 0-1.48.41-.66.4-1.27 1.4v13.5h-3.42v-18.5zm15.26 18.75q-2.94 0-4.18-1.73-1.23-1.75-1.23-5.08v-5.37q0-3.33 1.23-5.07 1.24-1.75 4.18-1.75 2.92 0 4.14 1.75 1.23 1.74 1.23 5.07v5.37q0 3.33-1.23 5.08-1.22 1.73-4.14 1.73zm0-2.51q.93 0 1.34-.55.42-.55.52-1.34.09-.8.09-2.19v-5.78q0-1.38-.1-2.19-.09-.83-.51-1.36-.4-.54-1.34-.54-.93 0-1.36.54-.43.53-.53 1.36-.1.81-.1 2.19v5.78q0 1.4.1 2.19.1.8.53 1.34.43.55 1.36.55zm13.56 2.51q-2.17 0-3.35-.87-1.2-.88-1.63-2.45-.42-1.6-.42-4.04v-4.25q0-2.5.42-4.09.44-1.6 1.63-2.45 1.18-.85 3.35-.85 1.99 0 3.08.64 1.11.65 1.55 1.91.44 1.27.44 3.28v1.08h-3.11v-1.1q0-1.84-.4-2.56-.4-.71-1.52-.71-.86 0-1.29.39-.4.37-.57 1.23-.16.86-.16 2.53v5.83q0 1.6.19 2.45.2.85.62 1.2.44.32 1.24.32 1.18 0 1.53-.78.36-.8.36-2.42v-1.5h3.1v1.26q0 3.02-1.1 4.49-1.11 1.46-3.96 1.46zm13.22 0q-2.14 0-3.33-.8-1.17-.82-1.66-2.41-.48-1.61-.48-4.18v-4.22q0-3.84 1.2-5.6 1.2-1.79 4.27-1.79 2.25 0 3.37.94 1.14.92 1.5 2.61.38 1.67.38 4.52v1.5h-7.3v3.72q0 1.68.5 2.45.5.75 1.58.75 1.1 0 1.47-.75.39-.77.39-2.3v-1.12h3.33v.7q0 2.92-1.25 4.45-1.25 1.53-3.97 1.53zm1.89-11.3v-1.65q0-1.89-.38-2.7-.35-.81-1.54-.81-.83 0-1.27.39-.42.37-.6 1.25-.15.87-.15 2.54v.99h3.94zm10.75 11.3q-2.23 0-3.64-1.4-1.39-1.4-1.58-3.77l2.85-.87q.26 1.8.89 2.67.62.86 1.76.86.91 0 1.4-.53.5-.53.5-1.42 0-.82-.36-1.44-.35-.64-1.15-1.31l-3.17-2.74q-1.08-.92-1.67-1.95-.6-1.05-.6-2.55 0-2.16 1.29-3.34 1.28-1.2 3.48-1.2 2.11 0 3.32 1.35 1.2 1.36 1.39 3.5l-2.3.86q-.24-1.56-.75-2.37-.5-.81-1.53-.81-.83 0-1.33.54-.5.53-.5 1.33 0 1.03.94 1.86l3.26 3.02q1.25 1.15 1.94 2.28.69 1.1.69 2.7 0 2.31-1.38 3.53-1.37 1.2-3.75 1.2zm11.97 0q-2.23 0-3.64-1.4-1.39-1.4-1.58-3.77l2.85-.87q.26 1.8.89 2.67.62.86 1.76.86.9 0 1.4-.53.5-.53.5-1.42 0-.82-.37-1.44-.34-.64-1.14-1.31l-3.17-2.74q-1.08-.92-1.67-1.95-.6-1.05-.6-2.55 0-2.16 1.29-3.34 1.28-1.2 3.48-1.2 2.11 0 3.31 1.35 1.2 1.36 1.4 3.5l-2.3.86q-.24-1.56-.75-2.37-.5-.81-1.53-.81-.83 0-1.33.54-.5.53-.5 1.33 0 1.03.94 1.86l3.26 3.02q1.25 1.15 1.94 2.28.69 1.1.69 2.7 0 2.31-1.38 3.53-1.37 1.2-3.75 1.2zm12.77 0q-2.94 0-4.18-1.73-1.23-1.75-1.23-5.08v-5.37q0-3.33 1.23-5.07 1.24-1.75 4.18-1.75 2.92 0 4.14 1.75 1.23 1.74 1.23 5.07v5.37q0 3.33-1.23 5.08-1.22 1.73-4.14 1.73zm0-2.51q.93 0 1.34-.55.42-.55.52-1.34.09-.8.09-2.19v-5.78q0-1.38-.1-2.19-.09-.83-.51-1.36-.4-.54-1.34-.54-.93 0-1.36.54-.43.53-.53 1.36-.1.81-.1 2.19v5.78q0 1.4.1 2.19.1.8.53 1.34.43.55 1.36.55zm8.61-16.24h3.42v2.63q.96-1.56 1.96-2.2 1.01-.64 2.14-.64.28 0 .54.03v3.78q-1.03-.4-1.89-.4-.82 0-1.48.41-.66.4-1.27 1.4v13.5h-3.42v-18.5z"/><path fill="#d9ead3" fill-rule="evenodd" d="M377.76 54.73h195.9V193.1h-195.9z"/><path stroke="#000" stroke-linecap="butt" stroke-linejoin="round" d="M377.76 54.73h195.9V193.1h-195.9z"/><path fill="#000" d="M432.9 116.95q-3.5 0-5.08-2.22-1.57-2.22-1.57-6.61v-8.67q0-3 .63-4.94.62-1.94 2.14-2.97 1.53-1.05 4.19-1.05 3.57 0 5.15 1.83 1.6 1.81 1.6 5.72v.97h-3.4v-.81q0-1.85-.23-2.85-.22-1.01-.94-1.53-.72-.51-2.12-.51-1.5 0-2.25.68-.74.7-.94 1.85-.2 1.15-.2 3.06v9.61q0 2.97.72 4.27.72 1.3 2.76 1.3 2.02 0 2.77-1.41t.75-4.52v-1.78h-3.3v-2.56h6.56v12.82h-2.26l-.36-2.96q-1.22 3.28-4.61 3.28zm10.77-18.82h3.42v2.63q.95-1.56 1.95-2.2 1.02-.64 2.15-.64.28 0 .54.03v3.78q-1.03-.4-1.89-.4-.83 0-1.48.41-.66.4-1.27 1.4v13.5h-3.42v-18.5zm13.5 18.75q-1.06 0-1.92-.59-.84-.6-1.32-1.6-.47-1-.47-2.09 0-2.17.92-3.53.94-1.36 2.37-2.15 1.44-.82 4-1.83v-1.31q0-1.83-.37-2.58-.36-.75-1.48-.75-1.96 0-1.96 2.62v.92l-3.39-.12q.06-3.08 1.4-4.53 1.35-1.46 4.18-1.46 2.64 0 3.84 1.46 1.2 1.45 1.2 4.4v8.44q0 2.08.33 4.45h-3.14q-.36-1.82-.45-2.71-.37 1.25-1.33 2.1-.93.86-2.4.86zm1.35-2.93q.67 0 1.31-.53.64-.54.92-1v-5.25q-1.37.76-2.12 1.32-.75.57-1.25 1.3-.5.74-.5 1.75 0 1.16.4 1.78.43.63 1.24.63zm8.96-15.82h3.42v1.47q1.5-1.72 3.52-1.72 2.53 0 3.37 2.16.85 2.16.85 4.78v4.49q0 3.39-1.05 5.48-1.03 2.1-3.56 2.1-1.63 0-3.13-1.63v7.45h-3.42V98.13zm5.88 16.07q1.18 0 1.51-1.19.34-1.2.34-3.7v-4.49q0-2.04-.39-3.14-.37-1.1-1.59-1.1-1.19 0-2.33.95v11.84q1.11.83 2.46.83zm8.49-23.49h3.42v9.35q2.3-2.18 4.64-2.18 1.5 0 2.12 1.1.63 1.08.63 2.69v14.96h-3.42v-13.98q0-1.06-.33-1.56-.31-.52-1.14-.52-1.13 0-2.5 1.22v14.84h-3.42V90.71zm14.36 1.1h3.42v3.57h-3.42v-3.57zm0 6.32h3.42v18.5h-3.42v-18.5zm12.16 18.75q-2.17 0-3.36-.87-1.19-.88-1.63-2.45-.42-1.6-.42-4.03v-4.25q0-2.5.42-4.1.44-1.6 1.63-2.45 1.19-.85 3.36-.85 1.98 0 3.08.65 1.1.64 1.54 1.9.44 1.27.44 3.28v1.08h-3.11v-1.1q0-1.84-.4-2.56-.4-.71-1.52-.71-.86 0-1.28.39-.4.37-.58 1.23-.16.86-.16 2.53v5.83q0 1.6.19 2.45.2.85.63 1.2.43.32 1.23.32 1.19 0 1.53-.78.36-.8.36-2.42v-1.5h3.11v1.26q0 3.02-1.11 4.49-1.1 1.46-3.95 1.46zm12.38 0q-2.23 0-3.64-1.4-1.39-1.4-1.58-3.77l2.85-.87q.26 1.8.89 2.67.62.86 1.76.86.91 0 1.4-.53.5-.53.5-1.42 0-.82-.36-1.44-.35-.64-1.14-1.31l-3.18-2.74q-1.07-.92-1.67-1.95-.6-1.05-.6-2.55 0-2.15 1.29-3.34 1.28-1.2 3.48-1.2 2.11 0 3.32 1.35 1.2 1.36 1.39 3.5l-2.3.86q-.23-1.56-.75-2.37-.5-.81-1.53-.81-.83 0-1.33.54-.5.53-.5 1.33 0 1.03.94 1.86l3.26 3.02q1.25 1.15 1.94 2.28.69 1.1.69 2.7 0 2.31-1.38 3.53-1.37 1.2-3.75 1.2zM417.12 154.92q-3.27 0-4.99-2.02-1.7-2.02-1.89-5.53l3.2-.86q.16 2.5.98 4.03.8 1.53 2.7 1.53 1.4 0 2.12-.78.72-.78.72-2.25 0-1.6-.67-2.66t-2.14-2.34l-4.34-3.84q-1.32-1.14-1.91-2.47-.6-1.33-.6-3.25 0-2.86 1.63-4.42 1.64-1.57 4.45-1.57 3.08 0 4.65 1.64 1.56 1.63 1.89 5.05l-3.08.83q-.16-2.27-.88-3.5t-2.58-1.23q-1.37 0-2.1.71-.74.72-.74 2.13 0 1.16.38 1.94.39.78 1.3 1.59l4.4 3.83q1.69 1.51 2.7 3.28 1.02 1.75 1.02 3.98 0 2.85-1.74 4.52-1.73 1.66-4.48 1.66zm8.45 1.73q1.92 0 2.64-.3.72-.28.72-1.07 0-.4-.7-3.4l-3.71-15.75h3.45l2.5 13.83 2.4-13.83h3.45l-4.4 19.54q-.46 1.93-1.9 2.76-1.44.85-4.03.85h-.42v-2.63zm12.84-20.52h3.42v1.83q2.2-2.08 4.5-2.08 1.52 0 2.16 1.1.64 1.08.64 2.69v14.96h-3.42v-13.98q0-1.06-.33-1.56-.32-.52-1.16-.52-1.01 0-2.39 1.16v14.9h-3.42v-18.5zm18.97 18.75q-4 0-4-4.4v-12.06h-1.96v-2.29h1.96v-5.4h3.42v5.4h2.98v2.29h-2.98v11.82q0 1.13.34 1.58.36.44 1.36.44.64 0 1.25-.1v2.54q-1.28.18-2.37.18zm5.03-26.17h3.42v9.35q2.3-2.18 4.64-2.18 1.5 0 2.12 1.1.63 1.08.63 2.69v14.96h-3.42v-13.98q0-1.06-.33-1.56-.31-.52-1.14-.52-1.13 0-2.5 1.22v14.84h-3.42v-25.92zm19.25 26.17q-2.14 0-3.33-.8-1.17-.82-1.65-2.41-.49-1.61-.49-4.18v-4.21q0-3.85 1.2-5.61 1.2-1.79 4.27-1.79 2.25 0 3.38.94 1.14.92 1.5 2.61.37 1.67.37 4.52v1.5h-7.3v3.72q0 1.68.5 2.45.5.75 1.58.75 1.1 0 1.47-.75.4-.77.4-2.3v-1.12h3.32v.7q0 2.92-1.25 4.45-1.25 1.53-3.97 1.53zm1.9-11.3v-1.65q0-1.89-.38-2.7-.36-.81-1.55-.81-.83 0-1.27.39-.42.37-.59 1.25-.16.87-.16 2.54v.99h3.94zm10.75 11.3q-2.24 0-3.65-1.4-1.39-1.4-1.57-3.77l2.84-.87q.27 1.8.9 2.67.62.86 1.76.86.9 0 1.39-.53.5-.53.5-1.42 0-.82-.36-1.44-.35-.64-1.14-1.31l-3.17-2.74q-1.08-.92-1.68-1.95-.59-1.05-.59-2.55 0-2.15 1.28-3.34 1.28-1.2 3.49-1.2 2.1 0 3.3 1.35 1.21 1.36 1.4 3.5l-2.3.86q-.23-1.56-.75-2.37-.5-.81-1.53-.81-.83 0-1.33.54-.5.53-.5 1.33 0 1.03.94 1.86l3.27 3.02q1.25 1.15 1.93 2.28.7 1.1.7 2.7 0 2.31-1.38 3.53-1.38 1.2-3.75 1.2zm7.9-25.07h3.42v3.57h-3.42v-3.57zm0 6.32h3.42v18.5h-3.42v-18.5zm6.4 16.2l5.66-13.63h-5.09v-2.57h8.78V138l-5.7 14.05h5.56v2.6h-9.2v-2.3zm16.92 2.55q-2.14 0-3.32-.8-1.18-.82-1.66-2.41-.49-1.61-.49-4.18v-4.21q0-3.85 1.2-5.61 1.21-1.79 4.27-1.79 2.25 0 3.38.94 1.14.92 1.5 2.61.37 1.67.37 4.52v1.5h-7.3v3.72q0 1.68.5 2.45.5.75 1.58.75 1.1 0 1.47-.75.4-.77.4-2.3v-1.12h3.32v.7q0 2.92-1.25 4.45-1.25 1.53-3.97 1.53zm1.9-11.3v-1.65q0-1.89-.38-2.7-.36-.81-1.55-.81-.83 0-1.26.39-.43.37-.6 1.25-.15.87-.15 2.54v.99h3.93zm6.56-7.45h3.42v2.63q.96-1.56 1.96-2.2 1.01-.64 2.14-.64.28 0 .54.03v3.78q-1.03-.4-1.89-.4-.83 0-1.48.41-.66.4-1.27 1.4v13.5H534v-18.5z"/><path fill="none" d="M168.28 193.1v110.2"/><path stroke="#000" stroke-linecap="butt" stroke-linejoin="round" stroke-width="4" d="M168.28 217.1v62.2"/><path fill="#000" fill-rule="evenodd" stroke="#000" stroke-linecap="butt" stroke-width="4" d="M174.89 217.1l-6.6-18.16-6.61 18.16zM161.68 279.3l6.6 18.15 6.61-18.15z"/><path fill="none" d="M266.24 123.91h111.52"/><path stroke="#000" stroke-linecap="butt" stroke-linejoin="round" stroke-width="4" d="M290.24 123.91h63.52"/><path fill="#000" fill-rule="evenodd" stroke="#000" stroke-linecap="butt" stroke-width="4" d="M290.24 117.3l-18.16 6.61 18.16 6.61zM353.76 130.52l18.16-6.6-18.16-6.61z"/><path fill="none" d="M173 9.8h307v32H173z"/><path fill="none" d="M0 0h644v32H0z"/><path fill="#000" d="M139.44 12.6h2.62l4.16 19.44h-2.58l-.89-4.9h-3.95l-.94 4.9h-2.55l4.13-19.44zm2.95 12.6l-1.62-8.75-1.61 8.75h3.23zm5.65-7.03h2.57v1.96q.71-1.17 1.46-1.65.77-.49 1.61-.49.2 0 .41.03v2.83q-.78-.28-1.42-.28-.63 0-1.13.3-.48.3-.93 1.05v10.12h-2.57V18.17zm11.43 14.06q-1.64 0-2.54-.66-.87-.65-1.2-1.84-.33-1.19-.33-3.02v-3.19q0-1.87.33-3.07.33-1.2 1.2-1.83.9-.64 2.54-.64 1.48 0 2.3.48.84.47 1.15 1.42.33.96.33 2.46v.83h-2.33v-.85q0-1.37-.3-1.9-.3-.55-1.14-.55-.64 0-.95.3-.31.28-.44.93-.12.64-.12 1.9v4.35q0 1.2.14 1.85.15.64.47.89.32.25.93.25.9 0 1.14-.58.27-.6.27-1.83v-1.12h2.33v.96q0 2.25-.83 3.36-.83 1.1-2.95 1.1zm6.14-19.63h2.56v7q1.72-1.62 3.49-1.62 1.12 0 1.6.81.46.81.46 2.02v11.23h-2.58V21.56q0-.8-.23-1.18-.24-.39-.86-.39-.84 0-1.88.9v11.15h-2.56V12.6zm10.78.82h2.56v2.68h-2.56v-2.68zm0 4.75h2.56v13.87h-2.56V18.17zm9 14.06q-3 0-3-3.31v-9.05h-1.45v-1.7h1.46v-4.05h2.57v4.05h2.24v1.7h-2.24v8.89q0 .83.27 1.17.27.33 1 .33.48 0 .94-.06v1.89q-.96.14-1.78.14zm7.56 0q-1.61 0-2.5-.61-.9-.61-1.25-1.81-.36-1.2-.36-3.13v-3.16q0-2.89.89-4.21.9-1.33 3.22-1.33 1.67 0 2.51.7.86.69 1.14 1.95.28 1.25.28 3.4v1.12h-5.48v2.78q0 1.28.37 1.84.38.57 1.2.57.8 0 1.08-.57.3-.56.3-1.71v-.85h2.5v.53q0 2.2-.94 3.35-.93 1.14-2.96 1.14zm1.4-8.47V22.5q0-1.4-.28-2.02-.27-.62-1.16-.62-.62 0-.95.3-.31.28-.44.95-.12.65-.12 1.89v.75h2.95zm8.65 8.47q-1.64 0-2.53-.66-.87-.65-1.2-1.84-.33-1.19-.33-3.02v-3.19q0-1.87.33-3.07.33-1.2 1.2-1.83.9-.64 2.53-.64 1.49 0 2.31.48.83.47 1.15 1.42.32.96.32 2.46v.83h-2.32v-.85q0-1.37-.3-1.9-.3-.55-1.14-.55-.64 0-.96.3-.3.28-.43.93-.13.64-.13 1.9v4.35q0 1.2.14 1.85.16.64.47.89.33.25.94.25.89 0 1.14-.58.27-.6.27-1.83v-1.12h2.32v.96q0 2.25-.82 3.36-.83 1.1-2.96 1.1zm9.76 0q-3 0-3-3.31v-9.05h-1.46v-1.7h1.46v-4.05h2.57v4.05h2.24v1.7h-2.24v8.89q0 .83.27 1.17.27.33 1 .33.48 0 .94-.06v1.89q-.96.14-1.78.14zm5.69 0q-1.13 0-1.61-.81-.47-.82-.47-2.02V18.17h2.56v10.46q0 .8.23 1.2.25.38.88.38.76 0 1.8-.86V18.17h2.56v13.87h-2.56v-1.37q-1.66 1.56-3.4 1.56zm8.65-14.06h2.56v1.96q.72-1.17 1.47-1.65.77-.49 1.61-.49.2 0 .4.03v2.83q-.78-.28-1.42-.28-.62 0-1.12.3-.49.3-.94 1.05v10.12h-2.56V18.17zm11.47 14.06q-1.61 0-2.5-.61-.9-.61-1.25-1.81-.36-1.2-.36-3.13v-3.16q0-2.89.89-4.21.9-1.33 3.22-1.33 1.67 0 2.51.7.86.69 1.15 1.95.28 1.25.28 3.4v1.12h-5.49v2.78q0 1.28.38 1.84.37.57 1.18.57.82 0 1.1-.57.3-.56.3-1.71v-.85h2.5v.53q0 2.2-.94 3.35-.94 1.14-2.97 1.14zm1.4-8.47V22.5q0-1.4-.28-2.02-.26-.62-1.15-.62-.63 0-.96.3-.3.28-.43.95-.13.65-.13 1.89v.75h2.96zm14.17 8.47q-2.2 0-3.13-1.3-.92-1.31-.92-3.81v-4.03q0-2.5.92-3.8.92-1.31 3.13-1.31 2.19 0 3.1 1.31.93 1.3.93 3.8v4.03q0 2.5-.92 3.81-.92 1.3-3.11 1.3zm0-1.9q.7 0 1.01-.4.32-.4.38-1 .08-.6.08-1.64v-4.34q0-1.03-.08-1.64-.06-.63-.38-1.04-.3-.4-1.01-.4-.69 0-1.02.4-.33.41-.4 1.04-.07.6-.07 1.64v4.34q0 1.03.07 1.64.07.6.4 1t1.02.4zm7.2-10.26h-1.66v-1.9h1.66v-.72q0-1.44.22-2.32.22-.87.87-1.36.66-.48 1.9-.48.85 0 1.7.17v1.88q-.49-.13-.97-.13-.7 0-.93.46-.21.43-.21 1.34v1.16h2.1v1.9h-2.1v11.97h-2.58V20.07zm15.26 12.16q-3 0-3-3.31v-9.05h-1.46v-1.7h1.46v-4.05h2.57v4.05h2.24v1.7h-2.24v8.89q0 .83.27 1.17.27.33 1 .33.48 0 .94-.06v1.89q-.96.14-1.78.14zm3.78-19.63h2.56v7q1.72-1.62 3.49-1.62 1.12 0 1.59.81t.47 2.02v11.23h-2.58V21.56q0-.8-.23-1.18-.24-.39-.86-.39-.85 0-1.88.9v11.15h-2.56V12.6zm14.44 19.63q-1.6 0-2.5-.61-.89-.61-1.25-1.81-.35-1.2-.35-3.13v-3.16q0-2.89.89-4.21.9-1.33 3.21-1.33 1.68 0 2.52.7.86.69 1.14 1.95.28 1.25.28 3.4v1.12h-5.48v2.78q0 1.28.37 1.84.38.57 1.19.57.81 0 1.1-.57.3-.56.3-1.71v-.85h2.5v.53q0 2.2-.95 3.35-.93 1.14-2.97 1.14zm1.41-8.47V22.5q0-1.4-.28-2.02-.27-.62-1.16-.62-.62 0-.95.3-.31.28-.44.95-.12.65-.12 1.89v.75h2.95zM306.8 12.6h4.83q2.51 0 3.65 1.38 1.14 1.36 1.14 4 0 2.37-1.23 3.7-1.22 1.31-3.55 1.31h-2.14v9.05h-2.7V12.6zm3.95 8.46q1.2 0 1.86-.27.66-.27.94-.9.3-.66.3-1.9 0-1.48-.22-2.17-.2-.7-.85-.98-.64-.3-2-.3h-1.28v6.52h1.25zm12.15 11.2q-2.46 0-3.74-1.52-1.28-1.51-1.42-4.15l2.4-.64q.12 1.87.73 3.03.62 1.14 2.03 1.14 1.06 0 1.6-.58.54-.6.54-1.7 0-1.2-.52-1.99-.5-.8-1.6-1.75l-3.26-2.89q-.98-.86-1.43-1.86-.44-1-.44-2.43 0-2.13 1.22-3.3 1.23-1.19 3.34-1.19 2.3 0 3.47 1.24 1.19 1.21 1.42 3.78l-2.3.62q-.12-1.7-.67-2.62-.53-.93-1.92-.93-1.03 0-1.6.55-.54.53-.54 1.58 0 .87.28 1.47.3.58 1 1.17l3.28 2.9q1.27 1.12 2.02 2.44.76 1.32.76 2.99 0 2.14-1.3 3.39-1.29 1.25-3.35 1.25zm6.24-2.05l4.94-7.7q.36-.58.48-.72.85-1.34 1.22-2.23.4-.9.4-2.13 0-1.4-.46-2.14-.45-.75-1.49-.75-2.3 0-2.3 3.58v.65h-2.57v-.67q0-2.75 1.12-4.2 1.13-1.47 3.63-1.47 2.3 0 3.47 1.31 1.19 1.32 1.19 3.7 0 1.18-.29 2.12-.26.92-.65 1.59-.4.67-1.2 1.92l-4.46 6.81h6.14v2.16h-9.17v-1.83zm19.78 2.02q-.8 0-1.44-.46-.62-.45-.98-1.18-.36-.75-.36-1.58 0-1.63.69-2.64.7-1.03 1.78-1.63 1.08-.6 3-1.36v-.98q0-1.38-.28-1.94t-1.11-.56q-1.47 0-1.47 1.97v.69l-2.55-.1q.05-2.3 1.05-3.39 1.01-1.1 3.12-1.1 2 0 2.9 1.1.9 1.1.9 3.3v6.33q0 1.56.24 3.34h-2.35q-.26-1.37-.34-2.05-.28.94-1 1.6-.7.64-1.8.64zm1-2.2q.5 0 .99-.4.48-.4.7-.76v-3.94q-1.03.58-1.61 1-.56.42-.94.99-.36.54-.36 1.3 0 .87.31 1.34.32.46.91.46zm10.41 2.2q-3 0-3-3.31v-9.05h-1.45v-1.7h1.45v-4.05h2.58v4.05h2.23v1.7h-2.23v8.89q0 .83.27 1.17.26.33 1 .33.48 0 .93-.06v1.89q-.95.14-1.78.14zm11.7 0q-.8 0-1.43-.46-.63-.45-.99-1.18-.36-.75-.36-1.58 0-1.63.69-2.64.7-1.03 1.78-1.63 1.08-.6 3-1.36v-.98q0-1.38-.28-1.94t-1.11-.56q-1.47 0-1.47 1.97v.69l-2.55-.1q.05-2.3 1.05-3.39 1.02-1.1 3.13-1.1 2 0 2.89 1.1.9 1.1.9 3.3v6.33q0 1.56.24 3.34h-2.35q-.26-1.37-.34-2.05-.28.94-1 1.6-.7.64-1.8.64zm1-2.2q.5 0 .99-.4.48-.4.7-.76v-3.94q-1.03.58-1.6 1-.57.42-.95.99-.36.54-.36 1.3 0 .87.32 1.34.3.46.9.46zm11.29-11.86h2.59l1.7 11.15 1.74-11.15h2.48l-2.64 13.87h-3.14l-2.73-13.87zm14.02 14.06q-1.61 0-2.5-.61-.9-.61-1.25-1.81-.36-1.2-.36-3.13v-3.16q0-2.89.89-4.21.9-1.33 3.22-1.33 1.67 0 2.51.7.86.69 1.14 1.95.28 1.25.28 3.4v1.12h-5.48v2.78q0 1.28.37 1.84.38.57 1.2.57.8 0 1.09-.57.3-.56.3-1.71v-.85h2.5v.53q0 2.2-.94 3.35-.94 1.14-2.97 1.14zm1.4-8.47V22.5q0-1.4-.28-2.02-.26-.62-1.15-.62-.63 0-.96.3-.31.28-.44.95-.12.65-.12 1.89v.75h2.95zm4.93-5.6h2.57v1.97q.72-1.17 1.47-1.65.76-.49 1.6-.49.2 0 .41.03v2.83q-.78-.28-1.42-.28-.63 0-1.13.3-.48.3-.93 1.05v10.12h-2.57V18.17zm7.41 15.4q1.44 0 1.97-.22.55-.22.55-.82 0-.3-.52-2.54l-2.8-11.81h2.6l1.87 10.37 1.8-10.37h2.6l-3.32 14.64q-.33 1.46-1.4 2.09-1.08.62-3.04.62h-.3v-1.96zm15.2-20.96h2.57v7q1.71-1.62 3.48-1.62 1.12 0 1.6.81.46.81.46 2.02v11.23h-2.58V21.56q0-.8-.23-1.18-.23-.39-.86-.39-.84 0-1.87.9v11.15h-2.57V12.6zm10.78.82h2.56v2.68h-2.56v-2.68zm0 4.75h2.56v13.87h-2.56V18.17zm8.91 18.17q-2.01 0-3.21-.64-1.2-.63-1.2-1.97 0-.92.57-1.6.56-.67 1.42-1.07-.64-.2-1-.6-.34-.4-.34-.89 0-.72.36-1.25t1.17-1.26q-.81-.63-1.2-1.58-.4-.96-.4-2.56 0-2.43 1-3.68 1-1.26 2.91-1.26 1.11 0 1.8.39.7.37 1.06 1.14.16-.27.7-.7.55-.46 1.18-.74l.37-.17.66 1.66q-.49.09-1.35.4-.84.31-1.01.49.17.43.3 1.2.14.77.14 1.34 0 2.28-.9 3.55-.89 1.25-2.95 1.25-.65 0-1.33-.17-.45.67-.45 1.06 0 .27.28.42.28.16.88.2l2.15.2q1.64.13 2.43.98.8.84.8 2.4 0 3.46-4.84 3.46zm.08-10.35q1.03 0 1.35-.72.3-.71.3-2.35 0-1.66-.3-2.41-.32-.75-1.33-.75-1 0-1.36.75-.35.75-.35 2.4 0 1.5.35 2.3.36.78 1.34.78zm.13 8.33q1.36 0 2-.33.65-.32.65-1.04 0-.68-.4-.99-.4-.33-1.49-.42l-2.18-.2q-.5.51-.77.89-.27.39-.27.84 0 .66.54.95.54.3 1.92.3zm6.72-21.72h2.56v7q1.72-1.62 3.49-1.62 1.12 0 1.59.81t.47 2.02v11.23h-2.58V21.56q0-.8-.23-1.18-.24-.39-.86-.39-.85 0-1.88.9v11.15h-2.56V12.6zm16.33 0h2.58v19.44h-2.58V12.6zm9.1 19.63q-1.6 0-2.5-.61-.88-.61-1.24-1.81-.36-1.2-.36-3.13v-3.16q0-2.89.89-4.21.9-1.33 3.22-1.33 1.67 0 2.51.7.86.69 1.14 1.95.28 1.25.28 3.4v1.12h-5.48v2.78q0 1.28.37 1.84.38.57 1.2.57.8 0 1.09-.57.3-.56.3-1.71v-.85h2.5v.53q0 2.2-.95 3.35-.93 1.14-2.96 1.14zm1.41-8.47V22.5q0-1.4-.28-2.02-.26-.62-1.16-.62-.62 0-.95.3-.31.28-.44.95-.12.65-.12 1.89v.75h2.95zm3.92-5.6h2.6l1.7 11.16 1.73-11.15h2.48l-2.64 13.87h-3.14l-2.73-13.87zm14.02 14.07q-1.6 0-2.5-.61-.9-.61-1.25-1.81-.36-1.2-.36-3.13v-3.16q0-2.89.9-4.21.9-1.33 3.21-1.33 1.67 0 2.52.7.86.69 1.14 1.95.28 1.25.28 3.4v1.12h-5.49v2.78q0 1.28.38 1.84.37.57 1.19.57.8 0 1.09-.57.3-.56.3-1.71v-.85h2.5v.53q0 2.2-.94 3.35-.94 1.14-2.97 1.14zm1.4-8.47V22.5q0-1.4-.27-2.02-.27-.62-1.16-.62-.63 0-.95.3-.32.28-.44.95-.13.65-.13 1.89v.75h2.96zm5.1-11.16h2.57v19.44h-2.58V12.6z"/></g></svg>